<svg width="40" height="40" viewBox="0 0 40 40" fill="none" xmlns="http://www.w3.org/2000/svg">
<path d="M20 39.375C30.7005 39.375 39.375 30.7005 39.375 20C39.375 9.29948 30.7005 0.625 20 0.625C9.29948 0.625 0.625 9.29948 0.625 20C0.625 30.7005 9.29948 39.375 20 39.375Z" fill="#30BF39"/>
<path d="M25.875 21.7509C25.625 21.6259 24.3125 20.8759 24.0625 20.8134C23.8125 20.6884 23.625 20.6884 23.4375 20.9384C23.25 21.1884 22.6875 21.8134 22.5625 21.9384C22.375 22.1259 22.25 22.1259 22 22.0009C21.75 21.8759 20.875 21.5634 19.875 20.5634C19.125 19.8134 18.5625 18.9384 18.4375 18.6259C18.3125 18.3759 18.4375 18.1884 18.5625 18.0634C18.6875 17.9384 18.8125 17.7509 19 17.6259C19.1875 17.5009 19.1875 17.3759 19.3125 17.1884C19.4375 17.0009 19.375 16.8759 19.3125 16.6884C19.25 16.5009 18.75 15.1884 18.5625 14.6259C18.375 14.0634 18.125 14.1884 18 14.1259C17.8125 14.1259 17.6875 14.0634 17.5 14.0634C17.25 14.0634 16.9375 14.1884 16.75 14.3759C16.5 14.6259 15.75 15.2509 15.75 16.5634C15.75 17.8759 16.625 19.2509 16.75 19.3759C16.875 19.5634 18.5 22.4384 21.1875 23.6259C23.875 24.8134 23.875 24.4384 24.375 24.4384C24.875 24.4384 26 23.8134 26.25 23.2509C26.5 22.6259 26.5 22.0634 26.4375 22.0009C26.3125 22.0009 26.125 21.9384 25.875 21.7509ZM20.875 28.1884C19.125 28.1884 17.5 27.6884 16.0625 26.7509L12.6875 27.8134L13.8125 24.5634C12.75 23.0634 12.125 21.2509 12.125 19.3759C12.125 14.5009 16.0625 10.5634 20.9375 10.5634C25.8125 10.5634 29.6875 14.5009 29.6875 19.3759C29.6875 24.2509 25.75 28.1884 20.875 28.1884ZM20.875 8.81335C15.0625 8.81335 10.3125 13.5634 10.3125 19.3759C10.3125 21.3134 10.8125 23.1884 11.8125 24.8134L9.875 30.5009L15.75 28.6259C17.3125 29.5009 19.0625 29.9384 20.875 29.9384C26.6875 29.9384 31.4375 25.1884 31.4375 19.3759C31.4375 13.5634 26.75 8.81335 20.875 8.81335Z" fill="white"/>
</svg>
